<mxfile host="app.diagrams.net" modified="2023-12-26T12:52:04.491Z" agent="Mozilla/5.0 (Windows NT 10.0; Win64; x64) AppleWebKit/537.36 (KHTML, like Gecko) Chrome/120.0.0.0 Safari/537.36" etag="8raMFwzl_HytDCZ8orGw" version="22.1.11" type="device">
  <diagram id="C5RBs43oDa-KdzZeNtuy" name="Page-1">
    <mxGraphModel dx="1816" dy="514" grid="1" gridSize="10" guides="1" tooltips="1" connect="1" arrows="1" fold="1" page="1" pageScale="1" pageWidth="827" pageHeight="1169" math="0" shadow="0">
      <root>
        <mxCell id="WIyWlLk6GJQsqaUBKTNV-0" />
        <mxCell id="WIyWlLk6GJQsqaUBKTNV-1" parent="WIyWlLk6GJQsqaUBKTNV-0" />
        <mxCell id="zkfFHV4jXpPFQw0GAbJ--0" value="Passenger " style="swimlane;fontStyle=2;align=center;verticalAlign=top;childLayout=stackLayout;horizontal=1;startSize=26;horizontalStack=0;resizeParent=1;resizeLast=0;collapsible=1;marginBottom=0;rounded=0;shadow=0;strokeWidth=1;" parent="WIyWlLk6GJQsqaUBKTNV-1" vertex="1">
          <mxGeometry x="310" y="40" width="160" height="110" as="geometry">
            <mxRectangle x="230" y="140" width="160" height="26" as="alternateBounds" />
          </mxGeometry>
        </mxCell>
        <mxCell id="zkfFHV4jXpPFQw0GAbJ--2" value="+getLuggageWeight(): int" style="text;align=left;verticalAlign=top;spacingLeft=4;spacingRight=4;overflow=hidden;rotatable=0;points=[[0,0.5],[1,0.5]];portConstraint=eastwest;rounded=0;shadow=0;html=0;" parent="zkfFHV4jXpPFQw0GAbJ--0" vertex="1">
          <mxGeometry y="26" width="160" height="26" as="geometry" />
        </mxCell>
        <mxCell id="KulanJFz60Vl3F21Lzec-38" style="edgeStyle=orthogonalEdgeStyle;rounded=0;orthogonalLoop=1;jettySize=auto;html=1;" parent="WIyWlLk6GJQsqaUBKTNV-1" source="zkfFHV4jXpPFQw0GAbJ--17" target="zkfFHV4jXpPFQw0GAbJ--0" edge="1">
          <mxGeometry relative="1" as="geometry">
            <Array as="points">
              <mxPoint x="390" y="280" />
            </Array>
          </mxGeometry>
        </mxCell>
        <mxCell id="zkfFHV4jXpPFQw0GAbJ--17" value="Crew " style="swimlane;fontStyle=0;align=center;verticalAlign=top;childLayout=stackLayout;horizontal=1;startSize=26;horizontalStack=0;resizeParent=1;resizeLast=0;collapsible=1;marginBottom=0;rounded=0;shadow=0;strokeWidth=1;" parent="WIyWlLk6GJQsqaUBKTNV-1" vertex="1">
          <mxGeometry x="560" y="250" width="220" height="89" as="geometry">
            <mxRectangle x="550" y="140" width="160" height="26" as="alternateBounds" />
          </mxGeometry>
        </mxCell>
        <mxCell id="KulanJFz60Vl3F21Lzec-49" value="&#xa;&lt;span style=&quot;color: rgb(17, 24, 39); font-family: &amp;quot;SÃ¶hne Mono&amp;quot;, Monaco, &amp;quot;Andale Mono&amp;quot;, &amp;quot;Ubuntu Mono&amp;quot;, monospace; font-size: 14px; font-style: normal; font-variant-ligatures: normal; font-variant-caps: normal; font-weight: 600; letter-spacing: normal; orphans: 2; text-align: left; text-indent: 0px; text-transform: none; widows: 2; word-spacing: 0px; -webkit-text-stroke-width: 0px; text-decoration-thickness: initial; text-decoration-style: initial; text-decoration-color: initial; float: none; display: inline !important;&quot;&gt;+getLuggageWeight(): int&lt;/span&gt;&#xa;&#xa;" style="text;html=1;align=center;verticalAlign=middle;resizable=0;points=[];autosize=1;strokeColor=none;fillColor=none;" parent="zkfFHV4jXpPFQw0GAbJ--17" vertex="1">
          <mxGeometry y="26" width="220" height="60" as="geometry" />
        </mxCell>
        <mxCell id="7FlIWb8iC_b4E6h6n-ND-26" style="edgeStyle=orthogonalEdgeStyle;rounded=0;orthogonalLoop=1;jettySize=auto;html=1;" edge="1" parent="WIyWlLk6GJQsqaUBKTNV-1" source="KulanJFz60Vl3F21Lzec-13" target="zkfFHV4jXpPFQw0GAbJ--17">
          <mxGeometry relative="1" as="geometry" />
        </mxCell>
        <mxCell id="KulanJFz60Vl3F21Lzec-13" value=" Pilot" style="swimlane;fontStyle=0;childLayout=stackLayout;horizontal=1;startSize=26;fillColor=none;horizontalStack=0;resizeParent=1;resizeParentMax=0;resizeLast=0;collapsible=1;marginBottom=0;whiteSpace=wrap;html=1;" parent="WIyWlLk6GJQsqaUBKTNV-1" vertex="1">
          <mxGeometry x="500" y="404.5" width="140" height="61" as="geometry" />
        </mxCell>
        <mxCell id="7FlIWb8iC_b4E6h6n-ND-25" style="edgeStyle=orthogonalEdgeStyle;rounded=0;orthogonalLoop=1;jettySize=auto;html=1;" edge="1" parent="WIyWlLk6GJQsqaUBKTNV-1" source="KulanJFz60Vl3F21Lzec-17" target="zkfFHV4jXpPFQw0GAbJ--17">
          <mxGeometry relative="1" as="geometry" />
        </mxCell>
        <mxCell id="KulanJFz60Vl3F21Lzec-17" value="FlightAttendant" style="swimlane;fontStyle=0;childLayout=stackLayout;horizontal=1;startSize=26;fillColor=none;horizontalStack=0;resizeParent=1;resizeParentMax=0;resizeLast=0;collapsible=1;marginBottom=0;whiteSpace=wrap;html=1;" parent="WIyWlLk6GJQsqaUBKTNV-1" vertex="1">
          <mxGeometry x="740" y="404.5" width="140" height="61" as="geometry" />
        </mxCell>
        <mxCell id="7FlIWb8iC_b4E6h6n-ND-9" style="edgeStyle=orthogonalEdgeStyle;rounded=0;orthogonalLoop=1;jettySize=auto;html=1;" edge="1" parent="WIyWlLk6GJQsqaUBKTNV-1" source="KulanJFz60Vl3F21Lzec-21" target="7FlIWb8iC_b4E6h6n-ND-0">
          <mxGeometry relative="1" as="geometry" />
        </mxCell>
        <mxCell id="KulanJFz60Vl3F21Lzec-21" value="FirstClass" style="swimlane;fontStyle=0;childLayout=stackLayout;horizontal=1;startSize=26;fillColor=none;horizontalStack=0;resizeParent=1;resizeParentMax=0;resizeLast=0;collapsible=1;marginBottom=0;whiteSpace=wrap;html=1;" parent="WIyWlLk6GJQsqaUBKTNV-1" vertex="1">
          <mxGeometry x="240" y="440" width="150" height="56" as="geometry" />
        </mxCell>
        <mxCell id="KulanJFz60Vl3F21Lzec-43" value="FirstClass(weight: int)" style="text;html=1;align=center;verticalAlign=middle;resizable=0;points=[];autosize=1;strokeColor=none;fillColor=none;" parent="KulanJFz60Vl3F21Lzec-21" vertex="1">
          <mxGeometry y="26" width="150" height="30" as="geometry" />
        </mxCell>
        <mxCell id="7FlIWb8iC_b4E6h6n-ND-7" style="edgeStyle=orthogonalEdgeStyle;rounded=0;orthogonalLoop=1;jettySize=auto;html=1;" edge="1" parent="WIyWlLk6GJQsqaUBKTNV-1" source="KulanJFz60Vl3F21Lzec-26" target="7FlIWb8iC_b4E6h6n-ND-0">
          <mxGeometry relative="1" as="geometry" />
        </mxCell>
        <mxCell id="KulanJFz60Vl3F21Lzec-26" value="BusinessClass" style="swimlane;fontStyle=0;childLayout=stackLayout;horizontal=1;startSize=26;fillColor=none;horizontalStack=0;resizeParent=1;resizeParentMax=0;resizeLast=0;collapsible=1;marginBottom=0;whiteSpace=wrap;html=1;" parent="WIyWlLk6GJQsqaUBKTNV-1" vertex="1">
          <mxGeometry x="-150" y="440" width="145" height="56" as="geometry" />
        </mxCell>
        <mxCell id="KulanJFz60Vl3F21Lzec-42" value="BusinessClass(weight: int)" style="text;html=1;align=center;verticalAlign=middle;resizable=0;points=[];autosize=1;strokeColor=none;fillColor=none;" parent="KulanJFz60Vl3F21Lzec-26" vertex="1">
          <mxGeometry y="26" width="145" height="30" as="geometry" />
        </mxCell>
        <mxCell id="7FlIWb8iC_b4E6h6n-ND-8" style="edgeStyle=orthogonalEdgeStyle;rounded=0;orthogonalLoop=1;jettySize=auto;html=1;" edge="1" parent="WIyWlLk6GJQsqaUBKTNV-1" source="KulanJFz60Vl3F21Lzec-30" target="7FlIWb8iC_b4E6h6n-ND-0">
          <mxGeometry relative="1" as="geometry" />
        </mxCell>
        <mxCell id="KulanJFz60Vl3F21Lzec-30" value="EconomyClass" style="swimlane;fontStyle=0;childLayout=stackLayout;horizontal=1;startSize=26;fillColor=none;horizontalStack=0;resizeParent=1;resizeParentMax=0;resizeLast=0;collapsible=1;marginBottom=0;whiteSpace=wrap;html=1;" parent="WIyWlLk6GJQsqaUBKTNV-1" vertex="1">
          <mxGeometry x="50" y="440" width="150" height="56" as="geometry" />
        </mxCell>
        <mxCell id="KulanJFz60Vl3F21Lzec-41" value="EconomyClass(weight: int)" style="text;html=1;align=center;verticalAlign=middle;resizable=0;points=[];autosize=1;strokeColor=none;fillColor=none;" parent="KulanJFz60Vl3F21Lzec-30" vertex="1">
          <mxGeometry y="26" width="150" height="30" as="geometry" />
        </mxCell>
        <mxCell id="7FlIWb8iC_b4E6h6n-ND-4" style="edgeStyle=orthogonalEdgeStyle;rounded=0;orthogonalLoop=1;jettySize=auto;html=1;" edge="1" parent="WIyWlLk6GJQsqaUBKTNV-1" source="7FlIWb8iC_b4E6h6n-ND-0" target="zkfFHV4jXpPFQw0GAbJ--0">
          <mxGeometry relative="1" as="geometry" />
        </mxCell>
        <mxCell id="7FlIWb8iC_b4E6h6n-ND-0" value="RegurlarPassenger" style="swimlane;fontStyle=0;childLayout=stackLayout;horizontal=1;startSize=26;fillColor=none;horizontalStack=0;resizeParent=1;resizeParentMax=0;resizeLast=0;collapsible=1;marginBottom=0;whiteSpace=wrap;html=1;" vertex="1" parent="WIyWlLk6GJQsqaUBKTNV-1">
          <mxGeometry x="-20" y="230" width="290" height="100" as="geometry" />
        </mxCell>
        <mxCell id="7FlIWb8iC_b4E6h6n-ND-1" value="-luggageWeight: int" style="text;strokeColor=none;fillColor=none;align=left;verticalAlign=top;spacingLeft=4;spacingRight=4;overflow=hidden;rotatable=0;points=[[0,0.5],[1,0.5]];portConstraint=eastwest;whiteSpace=wrap;html=1;" vertex="1" parent="7FlIWb8iC_b4E6h6n-ND-0">
          <mxGeometry y="26" width="290" height="26" as="geometry" />
        </mxCell>
        <mxCell id="7FlIWb8iC_b4E6h6n-ND-2" value="+RegularPassenger(weight: int)" style="text;strokeColor=none;fillColor=none;align=left;verticalAlign=top;spacingLeft=4;spacingRight=4;overflow=hidden;rotatable=0;points=[[0,0.5],[1,0.5]];portConstraint=eastwest;whiteSpace=wrap;html=1;" vertex="1" parent="7FlIWb8iC_b4E6h6n-ND-0">
          <mxGeometry y="52" width="290" height="26" as="geometry" />
        </mxCell>
        <mxCell id="7FlIWb8iC_b4E6h6n-ND-3" value="+getLuggageWeight(): int" style="text;strokeColor=none;fillColor=none;align=left;verticalAlign=top;spacingLeft=4;spacingRight=4;overflow=hidden;rotatable=0;points=[[0,0.5],[1,0.5]];portConstraint=eastwest;whiteSpace=wrap;html=1;" vertex="1" parent="7FlIWb8iC_b4E6h6n-ND-0">
          <mxGeometry y="78" width="290" height="22" as="geometry" />
        </mxCell>
        <mxCell id="7FlIWb8iC_b4E6h6n-ND-10" value="AircraftClass" style="swimlane;fontStyle=0;childLayout=stackLayout;horizontal=1;startSize=26;fillColor=none;horizontalStack=0;resizeParent=1;resizeParentMax=0;resizeLast=0;collapsible=1;marginBottom=0;whiteSpace=wrap;html=1;" vertex="1" parent="WIyWlLk6GJQsqaUBKTNV-1">
          <mxGeometry x="270" y="580" width="280" height="78" as="geometry" />
        </mxCell>
        <mxCell id="7FlIWb8iC_b4E6h6n-ND-11" value="getMaximumLuggageWeight(): int" style="text;strokeColor=none;fillColor=none;align=left;verticalAlign=top;spacingLeft=4;spacingRight=4;overflow=hidden;rotatable=0;points=[[0,0.5],[1,0.5]];portConstraint=eastwest;whiteSpace=wrap;html=1;" vertex="1" parent="7FlIWb8iC_b4E6h6n-ND-10">
          <mxGeometry y="26" width="280" height="26" as="geometry" />
        </mxCell>
        <mxCell id="7FlIWb8iC_b4E6h6n-ND-12" value="addPassenger(passenger: Passenger*): void" style="text;strokeColor=none;fillColor=none;align=left;verticalAlign=top;spacingLeft=4;spacingRight=4;overflow=hidden;rotatable=0;points=[[0,0.5],[1,0.5]];portConstraint=eastwest;whiteSpace=wrap;html=1;" vertex="1" parent="7FlIWb8iC_b4E6h6n-ND-10">
          <mxGeometry y="52" width="280" height="26" as="geometry" />
        </mxCell>
        <mxCell id="7FlIWb8iC_b4E6h6n-ND-19" style="edgeStyle=orthogonalEdgeStyle;rounded=0;orthogonalLoop=1;jettySize=auto;html=1;" edge="1" parent="WIyWlLk6GJQsqaUBKTNV-1" source="7FlIWb8iC_b4E6h6n-ND-14" target="7FlIWb8iC_b4E6h6n-ND-10">
          <mxGeometry relative="1" as="geometry">
            <Array as="points">
              <mxPoint x="225" y="720" />
              <mxPoint x="410" y="720" />
            </Array>
          </mxGeometry>
        </mxCell>
        <mxCell id="7FlIWb8iC_b4E6h6n-ND-14" value="FirstClassSection" style="swimlane;fontStyle=0;childLayout=stackLayout;horizontal=1;startSize=26;fillColor=none;horizontalStack=0;resizeParent=1;resizeParentMax=0;resizeLast=0;collapsible=1;marginBottom=0;whiteSpace=wrap;html=1;" vertex="1" parent="WIyWlLk6GJQsqaUBKTNV-1">
          <mxGeometry x="100" y="774.5" width="250" height="140" as="geometry" />
        </mxCell>
        <mxCell id="7FlIWb8iC_b4E6h6n-ND-15" value="passengers: vector&amp;lt;Passenger*&amp;gt;" style="text;strokeColor=none;fillColor=none;align=left;verticalAlign=top;spacingLeft=4;spacingRight=4;overflow=hidden;rotatable=0;points=[[0,0.5],[1,0.5]];portConstraint=eastwest;whiteSpace=wrap;html=1;" vertex="1" parent="7FlIWb8iC_b4E6h6n-ND-14">
          <mxGeometry y="26" width="250" height="26" as="geometry" />
        </mxCell>
        <mxCell id="7FlIWb8iC_b4E6h6n-ND-16" value="getMaximumLuggageWeight(): int" style="text;strokeColor=none;fillColor=none;align=left;verticalAlign=top;spacingLeft=4;spacingRight=4;overflow=hidden;rotatable=0;points=[[0,0.5],[1,0.5]];portConstraint=eastwest;whiteSpace=wrap;html=1;" vertex="1" parent="7FlIWb8iC_b4E6h6n-ND-14">
          <mxGeometry y="52" width="250" height="26" as="geometry" />
        </mxCell>
        <mxCell id="7FlIWb8iC_b4E6h6n-ND-17" value="addPassenger(passenger: Passenger*): void" style="text;strokeColor=none;fillColor=none;align=left;verticalAlign=top;spacingLeft=4;spacingRight=4;overflow=hidden;rotatable=0;points=[[0,0.5],[1,0.5]];portConstraint=eastwest;whiteSpace=wrap;html=1;" vertex="1" parent="7FlIWb8iC_b4E6h6n-ND-14">
          <mxGeometry y="78" width="250" height="32" as="geometry" />
        </mxCell>
        <mxCell id="7FlIWb8iC_b4E6h6n-ND-18" value="getPassengers(): vector&amp;lt;Passenger*&amp;gt;" style="text;html=1;align=center;verticalAlign=middle;resizable=0;points=[];autosize=1;strokeColor=none;fillColor=none;" vertex="1" parent="7FlIWb8iC_b4E6h6n-ND-14">
          <mxGeometry y="110" width="250" height="30" as="geometry" />
        </mxCell>
        <mxCell id="7FlIWb8iC_b4E6h6n-ND-37" style="edgeStyle=orthogonalEdgeStyle;rounded=0;orthogonalLoop=1;jettySize=auto;html=1;" edge="1" parent="WIyWlLk6GJQsqaUBKTNV-1" source="7FlIWb8iC_b4E6h6n-ND-20" target="7FlIWb8iC_b4E6h6n-ND-10">
          <mxGeometry relative="1" as="geometry" />
        </mxCell>
        <mxCell id="7FlIWb8iC_b4E6h6n-ND-20" value="BusinessClassSection" style="swimlane;fontStyle=0;childLayout=stackLayout;horizontal=1;startSize=26;fillColor=none;horizontalStack=0;resizeParent=1;resizeParentMax=0;resizeLast=0;collapsible=1;marginBottom=0;whiteSpace=wrap;html=1;" vertex="1" parent="WIyWlLk6GJQsqaUBKTNV-1">
          <mxGeometry x="390" y="780.5" width="253" height="134" as="geometry" />
        </mxCell>
        <mxCell id="7FlIWb8iC_b4E6h6n-ND-21" value="passengers: vector&amp;lt;Passenger*&amp;gt;" style="text;strokeColor=none;fillColor=none;align=left;verticalAlign=top;spacingLeft=4;spacingRight=4;overflow=hidden;rotatable=0;points=[[0,0.5],[1,0.5]];portConstraint=eastwest;whiteSpace=wrap;html=1;" vertex="1" parent="7FlIWb8iC_b4E6h6n-ND-20">
          <mxGeometry y="26" width="253" height="26" as="geometry" />
        </mxCell>
        <mxCell id="7FlIWb8iC_b4E6h6n-ND-22" value="getMaximumLuggageWeight(): int" style="text;strokeColor=none;fillColor=none;align=left;verticalAlign=top;spacingLeft=4;spacingRight=4;overflow=hidden;rotatable=0;points=[[0,0.5],[1,0.5]];portConstraint=eastwest;whiteSpace=wrap;html=1;" vertex="1" parent="7FlIWb8iC_b4E6h6n-ND-20">
          <mxGeometry y="52" width="253" height="26" as="geometry" />
        </mxCell>
        <mxCell id="7FlIWb8iC_b4E6h6n-ND-28" value="getPassengers(): vector&amp;lt;Passenger*&amp;gt;" style="text;html=1;align=center;verticalAlign=middle;resizable=0;points=[];autosize=1;strokeColor=none;fillColor=none;" vertex="1" parent="7FlIWb8iC_b4E6h6n-ND-20">
          <mxGeometry y="78" width="253" height="30" as="geometry" />
        </mxCell>
        <mxCell id="7FlIWb8iC_b4E6h6n-ND-23" value="addPassenger(passenger: Passenger*): void" style="text;strokeColor=none;fillColor=none;align=left;verticalAlign=top;spacingLeft=4;spacingRight=4;overflow=hidden;rotatable=0;points=[[0,0.5],[1,0.5]];portConstraint=eastwest;whiteSpace=wrap;html=1;" vertex="1" parent="7FlIWb8iC_b4E6h6n-ND-20">
          <mxGeometry y="108" width="253" height="26" as="geometry" />
        </mxCell>
        <mxCell id="7FlIWb8iC_b4E6h6n-ND-38" style="edgeStyle=orthogonalEdgeStyle;rounded=0;orthogonalLoop=1;jettySize=auto;html=1;" edge="1" parent="WIyWlLk6GJQsqaUBKTNV-1" source="7FlIWb8iC_b4E6h6n-ND-29" target="7FlIWb8iC_b4E6h6n-ND-10">
          <mxGeometry relative="1" as="geometry">
            <Array as="points">
              <mxPoint x="810" y="720" />
              <mxPoint x="410" y="720" />
            </Array>
          </mxGeometry>
        </mxCell>
        <mxCell id="7FlIWb8iC_b4E6h6n-ND-29" value="EconomyClassSection" style="swimlane;fontStyle=0;childLayout=stackLayout;horizontal=1;startSize=26;fillColor=none;horizontalStack=0;resizeParent=1;resizeParentMax=0;resizeLast=0;collapsible=1;marginBottom=0;whiteSpace=wrap;html=1;" vertex="1" parent="WIyWlLk6GJQsqaUBKTNV-1">
          <mxGeometry x="695" y="760" width="230" height="134" as="geometry" />
        </mxCell>
        <mxCell id="7FlIWb8iC_b4E6h6n-ND-33" value="passengers: vector&amp;lt;Passenger*&amp;gt;" style="text;strokeColor=none;fillColor=none;align=left;verticalAlign=top;spacingLeft=4;spacingRight=4;overflow=hidden;rotatable=0;points=[[0,0.5],[1,0.5]];portConstraint=eastwest;whiteSpace=wrap;html=1;" vertex="1" parent="7FlIWb8iC_b4E6h6n-ND-29">
          <mxGeometry y="26" width="230" height="26" as="geometry" />
        </mxCell>
        <mxCell id="7FlIWb8iC_b4E6h6n-ND-36" value="addPassenger(passenger: Passenger*): void" style="text;strokeColor=none;fillColor=none;align=left;verticalAlign=top;spacingLeft=4;spacingRight=4;overflow=hidden;rotatable=0;points=[[0,0.5],[1,0.5]];portConstraint=eastwest;whiteSpace=wrap;html=1;" vertex="1" parent="7FlIWb8iC_b4E6h6n-ND-29">
          <mxGeometry y="52" width="230" height="26" as="geometry" />
        </mxCell>
        <mxCell id="7FlIWb8iC_b4E6h6n-ND-35" value="getPassengers(): vector&amp;lt;Passenger*&amp;gt;" style="text;html=1;align=center;verticalAlign=middle;resizable=0;points=[];autosize=1;strokeColor=none;fillColor=none;" vertex="1" parent="7FlIWb8iC_b4E6h6n-ND-29">
          <mxGeometry y="78" width="230" height="30" as="geometry" />
        </mxCell>
        <mxCell id="7FlIWb8iC_b4E6h6n-ND-34" value="getMaximumLuggageWeight(): int" style="text;strokeColor=none;fillColor=none;align=left;verticalAlign=top;spacingLeft=4;spacingRight=4;overflow=hidden;rotatable=0;points=[[0,0.5],[1,0.5]];portConstraint=eastwest;whiteSpace=wrap;html=1;" vertex="1" parent="7FlIWb8iC_b4E6h6n-ND-29">
          <mxGeometry y="108" width="230" height="26" as="geometry" />
        </mxCell>
      </root>
    </mxGraphModel>
  </diagram>
</mxfile>
